<?xml version="1.0" standalone="no"?>
<!DOCTYPE svg PUBLIC "-//W3C//DTD SVG 20010904//EN"
 "http://www.w3.org/TR/2001/REC-SVG-20010904/DTD/svg10.dtd">
<svg version="1.0" xmlns="http://www.w3.org/2000/svg"
 width="2182.000000pt" height="2182.000000pt" viewBox="0 0 2182.000000 2182.000000"
 preserveAspectRatio="xMidYMid meet">
<metadata>
Created by potrace 1.14, written by Peter Selinger 2001-2017
</metadata>
<g transform="translate(0.000000,2182.000000) scale(0.100000,-0.100000)"
fill="#000000" stroke="none">
<path d="M10380 21810 c-2534 -135 -4849 -1085 -6740 -2765 -187 -166 -592
-567 -777 -769 -1385 -1514 -2311 -3369 -2682 -5378 -132 -714 -189 -1400
-178 -2148 7 -474 29 -790 83 -1220 155 -1235 517 -2414 1083 -3538 1678
-3325 4959 -5579 8651 -5941 417 -41 526 -46 1085 -46 561 0 693 6 1095 46
2856 285 5459 1671 7307 3889 1389 1667 2245 3712 2462 5880 40 402 46 534 46
1095 0 559 -5 668 -46 1085 -193 1967 -933 3866 -2127 5455 -1459 1942 -3511
3339 -5847 3980 -701 193 -1367 304 -2190 365 -187 14 -1017 21 -1225 10z
m1180 -260 c685 -46 1321 -143 1935 -296 2852 -713 5281 -2573 6730 -5154 118
-210 363 -705 459 -925 469 -1077 751 -2198 851 -3375 28 -343 38 -647 32
-1050 -8 -484 -28 -777 -83 -1210 -275 -2164 -1222 -4203 -2701 -5820 -189
-206 -582 -595 -773 -765 -1616 -1439 -3608 -2349 -5730 -2619 -433 -55 -726
-75 -1210 -83 -746 -11 -1386 42 -2105 173 -1236 226 -2453 687 -3550 1346
-1362 819 -2550 1963 -3428 3304 -1336 2039 -1926 4465 -1681 6914 211 2112
1053 4111 2426 5755 392 470 873 951 1343 1343 1180 985 2551 1703 4020 2105
753 206 1533 328 2350 367 219 10 901 4 1115 -10z"/>
<path d="M10540 20734 c-569 -31 -874 -64 -1320 -140 -2661 -455 -5038 -2002
-6548 -4261 -1144 -1711 -1722 -3722 -1661 -5783 46 -1566 453 -3086 1189
-4437 1435 -2632 3963 -4473 6888 -5018 587 -109 1048 -154 1677 -162 778 -10
1375 43 2095 187 2226 446 4207 1629 5676 3390 1687 2021 2493 4658 2233 7300
-248 2527 -1459 4858 -3387 6524 -642 554 -1346 1019 -2117 1397 -1161 570
-2377 894 -3710 989 -148 11 -890 21 -1015 14z m960 -1684 c728 -56 1396 -191
2055 -414 1900 -642 3520 -1980 4516 -3728 851 -1494 1207 -3191 1034 -4923
-238 -2367 -1511 -4527 -3480 -5907 -1107 -775 -2393 -1266 -3732 -1423 -382
-44 -495 -50 -998 -50 -501 1 -629 8 -1015 56 -1517 188 -2959 804 -4153 1772
-313 253 -711 632 -958 912 -1217 1375 -1920 3020 -2069 4833 -38 471 -28
1085 26 1577 356 3236 2628 5982 5749 6949 234 73 652 177 886 221 400 74 689
108 1204 139 113 7 800 -3 935 -14z"/>
<path d="M10860 16293 c-102 -13 -5854 -1225 -5905 -1244 -121 -45 -221 -125
-294 -235 -161 -241 -136 -559 62 -771 76 -81 151 -130 257 -167 73 -26 100
-30 190 -30 101 -1 207 21 2928 592 l2823 592 2812 -592 c2707 -570 2816 -592
2917 -592 86 1 120 6 186 27 245 81 413 299 431 562 17 256 -145 513 -386 610
-66 27 -5830 1240 -5926 1248 -33 2 -76 2 -95 0z"/>
<path d="M6132 12220 c-179 -48 -333 -172 -410 -330 -76 -154 -70 50 -76
-2538 -5 -2045 -4 -2334 9 -2339 13 -4 15 -78 15 -529 l0 -524 625 0 625 0 0
525 0 525 4005 0 4005 0 0 -525 0 -525 625 0 625 0 0 523 c0 344 4 527 10 533
7 7 10 493 7 1505 -3 1671 3 1528 -75 1689 -53 109 -168 222 -282 279 -158 78
-332 91 -490 38 -112 -38 -167 -72 -256 -161 -64 -64 -90 -99 -123 -166 -71
-146 -71 -143 -71 -1006 l0 -764 -3980 0 -3980 0 -2 1648 -3 1647 -27 73 c-38
104 -83 175 -159 251 -125 125 -255 181 -434 187 -87 3 -125 0 -183 -16z"/>
<path d="M7905 11169 c-521 -69 -866 -580 -734 -1085 113 -430 547 -715 976
-640 225 39 412 147 545 314 278 350 251 848 -63 1161 -187 188 -467 284 -724
250z"/>
<path d="M10615 10600 l-560 -5 0 -1065 0 -1065 2318 -3 2317 -2 0 808 c0 774
-1 812 -20 886 -56 218 -187 354 -400 416 -64 19 -114 23 -350 30 -288 9
-2343 9 -3305 0z"/>
<path d="M9335 10397 c-160 -42 -284 -175 -315 -337 -6 -29 -10 -212 -10 -411
l0 -359 -772 -2 -773 -3 -67 -32 c-88 -41 -160 -113 -201 -201 -30 -62 -32
-74 -32 -172 1 -86 5 -116 24 -163 33 -85 115 -168 209 -214 l76 -38 1015 0
c842 0 1024 2 1064 14 116 34 225 137 270 257 22 59 22 63 22 694 0 710 2 686
-72 798 -90 135 -283 209 -438 169z"/>
</g>
</svg>
