<?xml version="1.0" standalone="no"?>
<!DOCTYPE svg PUBLIC "-//W3C//DTD SVG 20010904//EN"
 "http://www.w3.org/TR/2001/REC-SVG-20010904/DTD/svg10.dtd">
<svg version="1.0" xmlns="http://www.w3.org/2000/svg"
 width="1224.000000pt" height="1224.000000pt" viewBox="0 0 1224.000000 1224.000000"
 preserveAspectRatio="xMidYMid meet">
<metadata>
Created by potrace 1.14, written by Peter Selinger 2001-2017
</metadata>
<g transform="translate(0.000000,1224.000000) scale(0.100000,-0.100000)"
fill="#000000" stroke="none">
<path d="M5785 12233 c-808 -43 -1631 -258 -2366 -619 -1810 -889 -3074 -2630
-3358 -4624 -72 -507 -80 -1066 -20 -1574 223 -1918 1325 -3600 3004 -4586
178 -104 535 -281 735 -363 928 -384 1965 -535 2958 -432 1237 129 2355 603
3322 1408 186 156 581 551 737 737 1041 1250 1537 2782 1422 4395 -90 1269
-593 2504 -1419 3484 -716 851 -1653 1494 -2696 1851 -518 177 -1058 284
-1614 319 -149 10 -554 12 -705 4z m930 -147 c989 -107 1894 -429 2701 -961
1029 -679 1826 -1662 2278 -2808 359 -909 487 -1895 375 -2882 -78 -688 -268
-1335 -575 -1955 -306 -619 -650 -1097 -1143 -1591 -327 -327 -580 -534 -943
-773 -1270 -836 -2797 -1155 -4303 -900 -1626 276 -3077 1224 -3990 2608 -353
536 -635 1166 -794 1778 -75 285 -133 610 -166 923 -22 206 -31 764 -16 992
88 1309 588 2528 1445 3523 132 154 421 444 579 582 993 869 2194 1374 3517
1477 182 15 859 6 1035 -13z"/>
<path d="M5755 11884 c-22 -2 -96 -9 -165 -14 -1033 -89 -2069 -485 -2920
-1119 -422 -314 -867 -759 -1181 -1181 -635 -853 -1006 -1818 -1121 -2920 -20
-197 -17 -903 5 -1100 36 -321 77 -551 143 -820 347 -1400 1212 -2623 2424
-3425 702 -465 1508 -772 2345 -894 307 -45 455 -55 830 -55 375 0 517 9 835
55 1058 151 2063 604 2900 1309 173 146 524 497 670 670 705 837 1158 1842
1309 2900 46 318 55 460 55 835 0 375 -10 523 -55 830 -336 2315 -2051 4207
-4319 4769 -476 118 -803 157 -1335 161 -209 1 -398 1 -420 -1z m750 -924
c1401 -120 2651 -807 3489 -1920 536 -711 853 -1518 953 -2430 21 -194 24
-731 5 -925 -102 -1020 -471 -1906 -1123 -2690 -46 -55 -173 -190 -283 -301
-309 -309 -583 -524 -936 -736 -88 -53 -280 -158 -289 -158 -14 0 -74 521 -88
774 -24 412 -24 1342 0 1631 10 121 22 274 28 340 14 184 23 2430 10 2665 -12
221 -37 386 -87 568 -62 227 -109 299 -187 289 -81 -11 -199 -169 -248 -331
-121 -408 -237 -1112 -279 -1691 -26 -367 -21 -879 10 -1170 27 -247 123 -496
294 -769 l56 -89 -20 -416 c-45 -915 -79 -1498 -101 -1731 -9 -96 -52 -347
-61 -355 -6 -6 -248 -75 -348 -100 -255 -64 -627 -125 -640 -105 -4 6 -10 74
-14 150 -8 184 -33 436 -56 590 -36 234 -71 840 -130 2223 -30 710 -18 779
173 986 68 74 98 117 132 186 52 107 90 243 111 397 20 141 22 591 5 863 -24
370 -81 928 -130 1279 l-17 121 -7 -225 c-4 -124 -12 -387 -17 -585 -17 -610
-39 -883 -77 -948 -20 -33 -48 -55 -58 -45 -19 19 -46 235 -70 573 -19 262
-55 971 -55 1077 0 44 -4 77 -8 74 -5 -3 -12 -108 -15 -233 -22 -726 -86
-1393 -142 -1469 -13 -18 -15 -17 -29 16 -48 116 -95 575 -126 1247 -5 122
-10 269 -10 327 0 58 -4 106 -8 106 -5 0 -12 -102 -16 -227 -20 -673 -69
-1347 -107 -1460 -13 -41 -24 -41 -48 -2 -46 75 -80 442 -102 1109 -6 184 -14
407 -17 495 l-7 160 -18 -125 c-88 -636 -139 -1274 -140 -1725 0 -534 62 -772
260 -986 98 -106 134 -165 157 -254 23 -92 38 -268 31 -379 -3 -56 -19 -463
-35 -906 -47 -1277 -52 -1349 -95 -1590 -31 -168 -50 -341 -65 -580 -6 -102
-13 -204 -16 -227 l-5 -43 -60 0 c-161 0 -552 56 -809 115 -145 34 -347 89
-355 97 -16 16 -134 1571 -181 2398 -18 305 -25 1082 -12 1132 6 18 56 63 170
150 89 67 202 161 250 207 79 75 93 94 139 190 102 213 139 378 139 622 0 419
-133 1048 -290 1377 -125 262 -294 443 -479 513 -108 41 -215 20 -341 -66
-313 -213 -522 -715 -621 -1485 -18 -138 -20 -200 -16 -380 5 -253 22 -334
108 -528 80 -182 122 -227 421 -457 72 -55 141 -113 152 -128 20 -28 21 -39
20 -400 -1 -205 -9 -509 -18 -677 -38 -708 -144 -2162 -158 -2176 -6 -6 -271
141 -403 224 -953 596 -1676 1513 -2030 2577 -127 381 -202 754 -236 1168 -15
197 -7 724 16 912 68 581 214 1077 465 1590 341 696 828 1284 1455 1755 698
525 1570 864 2415 939 69 6 139 13 155 15 73 8 611 5 720 -4z"/>
</g>
</svg>
