<?xml version="1.0" standalone="no"?>
<!DOCTYPE svg PUBLIC "-//W3C//DTD SVG 20010904//EN"
 "http://www.w3.org/TR/2001/REC-SVG-20010904/DTD/svg10.dtd">
<svg version="1.0" xmlns="http://www.w3.org/2000/svg"
 width="2182.000000pt" height="2182.000000pt" viewBox="0 0 2182.000000 2182.000000"
 preserveAspectRatio="xMidYMid meet">
<metadata>
Created by potrace 1.14, written by Peter Selinger 2001-2017
</metadata>
<g transform="translate(0.000000,2182.000000) scale(0.100000,-0.100000)"
fill="#000000" stroke="none">
<path d="M10380 21810 c-2534 -135 -4849 -1085 -6740 -2765 -187 -166 -592
-567 -777 -769 -1385 -1514 -2311 -3369 -2682 -5378 -132 -714 -189 -1400
-178 -2148 7 -474 29 -790 83 -1220 155 -1235 517 -2414 1083 -3538 1678
-3325 4959 -5579 8651 -5941 417 -41 526 -46 1085 -46 561 0 693 6 1095 46
2856 285 5459 1671 7307 3889 1389 1667 2245 3712 2462 5880 40 402 46 534 46
1095 0 559 -5 668 -46 1085 -193 1967 -933 3866 -2127 5455 -1459 1942 -3511
3339 -5847 3980 -701 193 -1367 304 -2190 365 -187 14 -1017 21 -1225 10z
m1180 -260 c685 -46 1321 -143 1935 -296 2852 -713 5281 -2573 6730 -5154 118
-210 363 -705 459 -925 469 -1077 751 -2198 851 -3375 28 -343 38 -647 32
-1050 -8 -484 -28 -777 -83 -1210 -275 -2164 -1222 -4203 -2701 -5820 -189
-206 -582 -595 -773 -765 -1616 -1439 -3608 -2349 -5730 -2619 -433 -55 -726
-75 -1210 -83 -746 -11 -1386 42 -2105 173 -1236 226 -2453 687 -3550 1346
-1362 819 -2550 1963 -3428 3304 -1336 2039 -1926 4465 -1681 6914 211 2112
1053 4111 2426 5755 392 470 873 951 1343 1343 1180 985 2551 1703 4020 2105
753 206 1533 328 2350 367 219 10 901 4 1115 -10z"/>
<path d="M10540 20734 c-569 -31 -874 -64 -1320 -140 -2661 -455 -5038 -2002
-6548 -4261 -1144 -1711 -1722 -3722 -1661 -5783 46 -1566 453 -3086 1189
-4437 1435 -2632 3963 -4473 6888 -5018 587 -109 1048 -154 1677 -162 778 -10
1375 43 2095 187 2226 446 4207 1629 5676 3390 1687 2021 2493 4658 2233 7300
-248 2527 -1459 4858 -3387 6524 -642 554 -1346 1019 -2117 1397 -1161 570
-2377 894 -3710 989 -148 11 -890 21 -1015 14z m960 -1684 c728 -56 1396 -191
2055 -414 1900 -642 3520 -1980 4516 -3728 851 -1494 1207 -3191 1034 -4923
-238 -2367 -1511 -4527 -3480 -5907 -1107 -775 -2393 -1266 -3732 -1423 -382
-44 -495 -50 -998 -50 -501 1 -629 8 -1015 56 -1517 188 -2959 804 -4153 1772
-313 253 -711 632 -958 912 -1217 1375 -1920 3020 -2069 4833 -38 471 -28
1085 26 1577 356 3236 2628 5982 5749 6949 234 73 652 177 886 221 400 74 689
108 1204 139 113 7 800 -3 935 -14z"/>
<path d="M11590 14920 c-636 -33 -1024 -98 -1550 -261 -470 -145 -1021 -390
-1449 -644 -446 -265 -809 -691 -1096 -1287 -282 -587 -480 -1328 -568 -2120
-3 -23 16 -50 111 -155 134 -150 263 -283 275 -283 4 0 5 19 2 43 -9 56 11
501 30 685 107 1024 440 1868 935 2362 451 452 1299 833 2512 1130 374 91
1056 223 1268 245 30 3 -71 -23 -225 -59 -1855 -425 -2929 -912 -3492 -1581
-97 -115 -265 -360 -313 -455 -170 -338 -371 -1448 -515 -2853 l-27 -258 27
-42 c47 -72 198 -211 311 -287 206 -137 527 -277 824 -359 203 -55 198 -54
203 -34 2 10 2 259 -1 553 -5 565 3 818 38 1166 104 1020 380 1806 838 2381
269 337 598 594 1037 810 649 318 1470 509 2520 585 202 15 1173 18 1268 5
l57 -8 0 -65 c0 -73 7 -69 -125 -79 -156 -12 -629 -75 -899 -119 -803 -132
-1471 -306 -2035 -528 -218 -87 -541 -250 -705 -358 -76 -50 -161 -102 -190
-117 -86 -43 -168 -107 -257 -200 -294 -309 -510 -866 -649 -1676 -90 -523
-138 -1096 -147 -1778 l-6 -437 22 -36 c114 -184 471 -304 1031 -346 147 -11
673 -12 838 -1 125 7 120 2 -59 -69 -480 -189 -1061 -245 -1719 -164 -132 16
-481 83 -564 109 -47 14 -52 14 -130 -12 -76 -26 -92 -27 -261 -27 -156 0
-193 3 -275 23 -360 89 -771 310 -1162 624 -63 51 -136 110 -161 133 l-45 40
-10 151 -10 150 -98 99 c-203 204 -344 465 -429 799 -20 76 -37 140 -38 142
-6 6 -474 -446 -598 -578 -380 -401 -554 -647 -641 -902 -28 -82 -32 -105 -32
-207 0 -100 4 -125 28 -195 60 -175 150 -307 336 -494 340 -341 844 -688 1517
-1045 577 -305 1292 -596 1617 -656 389 -72 1945 239 3071 615 610 203 1347
504 2118 864 131 62 282 131 335 155 208 94 655 312 895 437 788 411 1280 731
1519 989 112 119 171 246 203 429 44 251 -22 531 -184 776 l-46 70 -5 -106
c-5 -97 -9 -114 -42 -181 -103 -207 -523 -539 -897 -707 -71 -32 -260 -101
-277 -101 -2 0 -4 42 -4 94 l0 95 113 67 c316 190 592 388 696 500 97 105 99
108 126 166 125 273 107 805 -51 1528 -280 1282 -914 2021 -2149 2505 -511
201 -1056 307 -1770 345 -207 11 -602 11 -815 0z m3163 -1121 c267 -134 548
-383 755 -670 353 -491 588 -1219 642 -1989 5 -80 10 -148 10 -152 0 -11 -194
-118 -201 -110 -3 4 -16 57 -29 117 -12 61 -44 196 -70 300 -316 1249 -886
2080 -1615 2350 -109 41 -256 75 -322 75 -24 0 -43 4 -43 8 0 5 179 29 398 54
218 25 401 46 405 47 4 0 36 -13 70 -30z m-2608 -794 c-359 -134 -675 -336
-946 -605 -365 -362 -631 -814 -823 -1397 -147 -447 -256 -1079 -256 -1482 0
-46 -2 -82 -4 -80 -10 10 -27 222 -35 429 -36 929 156 1794 500 2255 317 423
847 737 1514 895 172 41 188 36 50 -15z m-5794 -2992 c-486 -633 -643 -1242
-447 -1731 19 -47 34 -87 33 -89 -1 -1 -34 22 -72 51 -173 131 -301 312 -370
525 -67 207 142 576 573 1007 119 120 282 264 298 264 3 0 -4 -12 -15 -27z"/>
</g>
</svg>
