<?xml version="1.0" standalone="no"?>
<!DOCTYPE svg PUBLIC "-//W3C//DTD SVG 20010904//EN"
 "http://www.w3.org/TR/2001/REC-SVG-20010904/DTD/svg10.dtd">
<svg version="1.0" xmlns="http://www.w3.org/2000/svg"
 width="2159.000000pt" height="2159.000000pt" viewBox="0 0 2159.000000 2159.000000"
 preserveAspectRatio="xMidYMid meet">
<metadata>
Created by potrace 1.14, written by Peter Selinger 2001-2017
</metadata>
<g transform="translate(0.000000,2159.000000) scale(0.100000,-0.100000)"
fill="#000000" stroke="none">
<path d="M10370 21584 c-412 -22 -648 -42 -945 -80 -1801 -230 -3502 -904
-4972 -1972 -473 -344 -857 -674 -1298 -1116 -435 -436 -757 -811 -1097 -1279
-1068 -1470 -1742 -3171 -1972 -4972 -63 -498 -81 -789 -81 -1370 0 -581 18
-872 81 -1370 259 -2033 1082 -3929 2394 -5515 403 -486 944 -1027 1430 -1430
1948 -1611 4360 -2480 6885 -2480 2524 0 4936 869 6885 2480 485 402 1028 945
1430 1430 1611 1949 2480 4361 2480 6885 0 2525 -869 4937 -2480 6885 -403
486 -944 1027 -1430 1430 -1263 1044 -2717 1777 -4300 2169 -603 148 -1189
239 -1895 291 -137 11 -986 21 -1115 14z m1070 -264 c1153 -77 2194 -308 3225
-715 2285 -901 4196 -2587 5382 -4750 1276 -2326 1623 -5069 968 -7660 -560
-2215 -1841 -4200 -3641 -5639 -824 -658 -1722 -1180 -2704 -1569 -2195 -871
-4673 -972 -6942 -283 -2774 842 -5104 2819 -6388 5421 -630 1277 -972 2567
-1072 4045 -27 402 -14 1138 28 1595 246 2692 1516 5178 3554 6963 1253 1098
2740 1880 4345 2287 733 186 1392 280 2245 319 138 6 843 -3 1000 -14z"/>
<path d="M10320 20654 c-1421 -80 -2706 -412 -3935 -1019 -1902 -939 -3466
-2476 -4446 -4370 -768 -1485 -1145 -3150 -1098 -4843 66 -2358 944 -4569
2524 -6352 158 -178 603 -624 780 -781 559 -498 1160 -927 1810 -1292 203
-114 710 -362 930 -455 1080 -457 2130 -703 3340 -783 232 -15 908 -15 1140 0
695 46 1276 136 1900 296 1268 324 2458 894 3504 1680 404 304 687 551 1066
930 503 502 868 946 1254 1525 917 1377 1478 2968 1625 4615 31 347 38 575 33
1035 -5 474 -16 652 -63 1050 -233 1978 -1072 3861 -2387 5364 -871 995 -1929
1809 -3102 2386 -1144 562 -2321 885 -3640 996 -179 15 -1058 28 -1235 18z
m1170 -1688 c595 -56 1093 -147 1615 -298 920 -264 1841 -721 2608 -1291 1021
-759 1826 -1693 2415 -2804 80 -150 214 -426 255 -524 14 -34 14 -36 -2 -33
-9 2 -187 33 -396 69 -471 80 -712 124 -973 176 -189 37 -237 52 -700 213
-1305 456 -2200 782 -2837 1036 -528 211 -769 325 -870 410 -87 74 -109 84
-190 85 -93 0 -163 -34 -263 -129 l-74 -71 -69 4 c-86 4 -155 -16 -282 -81
-159 -82 -346 -224 -548 -416 -69 -65 -208 -178 -349 -282 -913 -674 -1215
-907 -1311 -1007 -192 -201 -408 -551 -635 -1028 -128 -268 -258 -515 -311
-589 -41 -57 -63 -106 -63 -138 0 -47 22 -101 57 -139 68 -75 105 -82 245 -49
46 11 116 26 156 33 l74 14 -6 -26 c-36 -171 -32 -293 14 -434 75 -224 252
-401 475 -474 116 -37 279 -43 396 -14 159 40 297 125 400 248 24 28 44 51 45
50 1 -1 -15 -54 -36 -117 -113 -338 -114 -678 -3 -782 37 -35 159 -32 263 7
259 96 484 266 616 466 54 82 75 104 133 143 217 144 685 283 1346 397 288 50
368 53 800 25 386 -25 999 -27 1231 -3 312 32 490 80 599 162 160 121 307 151
680 142 284 -7 559 -44 852 -112 113 -27 107 -24 969 -497 214 -118 586 -322
827 -453 l439 -240 -6 -225 c-9 -349 -46 -718 -112 -1100 -603 -3522 -3434
-6280 -6970 -6790 -1577 -227 -3174 -3 -4612 647 -750 339 -1426 776 -2077
1344 -167 146 -578 557 -724 724 -836 958 -1420 2024 -1760 3210 -499 1744
-402 3673 272 5350 889 2215 2663 3927 4913 4739 672 242 1435 403 2164 456
80 6 168 12 195 14 143 10 961 -3 1125 -18z m-95 -5101 c161 -45 418 -97 494
-100 l74 -3 64 -93 c36 -52 85 -128 109 -169 l44 -75 0 -195 0 -195 -101 -120
c-128 -151 -302 -324 -360 -358 -24 -14 -84 -40 -134 -57 -198 -69 -505 -239
-705 -389 -118 -89 -315 -290 -379 -386 -30 -44 -50 -71 -47 -60 46 131 47
325 3 460 -105 319 -415 532 -747 512 -90 -6 -203 -33 -262 -63 l-26 -14 16
41 c14 34 41 59 172 154 213 156 323 249 478 409 l132 137 133 53 c428 174
769 359 892 485 27 28 52 51 55 51 3 0 46 -11 95 -25z"/>
<path d="M7724 10498 c-123 -87 -306 -271 -382 -386 -107 -161 -184 -351 -217
-537 -23 -127 -30 -333 -16 -449 l12 -96 -59 -68 c-256 -291 -444 -682 -530
-1107 -55 -268 -82 -615 -63 -811 42 -430 236 -843 592 -1259 90 -106 292
-303 402 -394 l77 -64 0 -570 0 -569 45 -68 c76 -115 168 -185 277 -214 88
-23 319 -30 560 -17 277 15 354 35 443 113 53 46 83 114 100 226 18 115 19
213 4 317 -6 42 -8 79 -6 82 3 2 61 -7 128 -21 421 -85 875 -82 1322 10 66 13
122 23 124 21 1 -2 -2 -52 -9 -111 -13 -120 -1 -289 28 -385 22 -75 107 -160
189 -191 94 -34 141 -39 445 -46 321 -7 431 1 516 40 66 30 161 118 215 199
l39 59 0 563 0 562 103 86 c133 112 331 314 437 447 371 466 548 956 525 1455
-31 673 -212 1187 -569 1613 l-87 104 12 80 c16 112 6 377 -19 493 -82 378
-287 682 -610 902 l-82 57 -73 -23 c-155 -49 -361 -163 -486 -270 -51 -43
-164 -175 -173 -202 -3 -8 -68 7 -216 51 -117 34 -219 60 -227 56 -30 -11 -48
-70 -53 -168 -3 -54 -7 -98 -11 -98 -3 0 -64 7 -136 15 -322 36 -824 39 -1115
5 -140 -16 -130 -21 -130 61 0 85 -16 152 -41 175 -18 16 -29 15 -222 -41
-111 -32 -207 -60 -213 -62 -6 -2 -32 25 -57 60 -85 119 -245 246 -416 332
-88 44 -245 105 -271 105 -9 0 -57 -28 -106 -62z m2256 -2623 c285 -60 513
-205 635 -405 203 -333 51 -742 -350 -943 -312 -155 -728 -155 -1040 0 -401
201 -553 610 -350 943 125 205 382 364 660 409 39 6 81 13 95 15 51 9 277 -3
350 -19z"/>
<path d="M9183 7406 c-53 -17 -111 -53 -123 -76 -6 -10 -10 -32 -10 -48 0
-115 236 -178 416 -111 131 49 139 156 17 216 -50 24 -71 28 -158 30 -64 2
-115 -2 -142 -11z"/>
<path d="M10053 7406 c-121 -39 -166 -116 -108 -185 89 -105 390 -102 474 5
47 60 18 124 -77 167 -59 26 -224 34 -289 13z"/>
</g>
</svg>
