<?xml version="1.0" standalone="no"?>
<!DOCTYPE svg PUBLIC "-//W3C//DTD SVG 20010904//EN"
 "http://www.w3.org/TR/2001/REC-SVG-20010904/DTD/svg10.dtd">
<svg version="1.0" xmlns="http://www.w3.org/2000/svg"
 width="2182.000000pt" height="2182.000000pt" viewBox="0 0 2182.000000 2182.000000"
 preserveAspectRatio="xMidYMid meet">
<metadata>
Created by potrace 1.14, written by Peter Selinger 2001-2017
</metadata>
<g transform="translate(0.000000,2182.000000) scale(0.100000,-0.100000)"
fill="#000000" stroke="none">
<path d="M10380 21810 c-2534 -135 -4849 -1085 -6740 -2765 -187 -166 -592
-567 -777 -769 -1385 -1514 -2311 -3369 -2682 -5378 -132 -714 -189 -1400
-178 -2148 7 -474 29 -790 83 -1220 155 -1235 517 -2414 1083 -3538 1678
-3325 4959 -5579 8651 -5941 417 -41 526 -46 1085 -46 561 0 693 6 1095 46
2856 285 5459 1671 7307 3889 1389 1667 2245 3712 2462 5880 40 402 46 534 46
1095 0 559 -5 668 -46 1085 -193 1967 -933 3866 -2127 5455 -1459 1942 -3511
3339 -5847 3980 -701 193 -1367 304 -2190 365 -187 14 -1017 21 -1225 10z
m1180 -260 c685 -46 1321 -143 1935 -296 2852 -713 5281 -2573 6730 -5154 118
-210 363 -705 459 -925 469 -1077 751 -2198 851 -3375 28 -343 38 -647 32
-1050 -8 -484 -28 -777 -83 -1210 -275 -2164 -1222 -4203 -2701 -5820 -189
-206 -582 -595 -773 -765 -1616 -1439 -3608 -2349 -5730 -2619 -433 -55 -726
-75 -1210 -83 -746 -11 -1386 42 -2105 173 -1236 226 -2453 687 -3550 1346
-1362 819 -2550 1963 -3428 3304 -1336 2039 -1926 4465 -1681 6914 211 2112
1053 4111 2426 5755 392 470 873 951 1343 1343 1180 985 2551 1703 4020 2105
753 206 1533 328 2350 367 219 10 901 4 1115 -10z"/>
<path d="M10540 20734 c-569 -31 -874 -64 -1320 -140 -2661 -455 -5038 -2002
-6548 -4261 -1144 -1711 -1722 -3722 -1661 -5783 46 -1566 453 -3086 1189
-4437 1435 -2632 3963 -4473 6888 -5018 587 -109 1048 -154 1677 -162 778 -10
1375 43 2095 187 2226 446 4207 1629 5676 3390 1687 2021 2493 4658 2233 7300
-248 2527 -1459 4858 -3387 6524 -642 554 -1346 1019 -2117 1397 -1161 570
-2377 894 -3710 989 -148 11 -890 21 -1015 14z m960 -1684 c728 -56 1396 -191
2055 -414 1900 -642 3520 -1980 4516 -3728 851 -1494 1207 -3191 1034 -4923
-238 -2367 -1511 -4527 -3480 -5907 -1107 -775 -2393 -1266 -3732 -1423 -382
-44 -495 -50 -998 -50 -501 1 -629 8 -1015 56 -1517 188 -2959 804 -4153 1772
-313 253 -711 632 -958 912 -1217 1375 -1920 3020 -2069 4833 -38 471 -28
1085 26 1577 356 3236 2628 5982 5749 6949 234 73 652 177 886 221 400 74 689
108 1204 139 113 7 800 -3 935 -14z"/>
<path d="M9210 13537 c0 -223 -3 -307 -11 -307 -29 0 -186 -146 -579 -540
-234 -234 -546 -551 -692 -706 l-267 -280 -188 -17 c-103 -10 -330 -35 -503
-57 -173 -21 -405 -48 -515 -60 -353 -38 -641 -88 -930 -162 -271 -69 -567
-178 -695 -257 -28 -18 -73 -39 -98 -48 -214 -72 -320 -358 -283 -763 l11
-125 -64 -67 c-132 -135 -182 -243 -174 -377 6 -107 41 -174 143 -277 68 -68
229 -184 257 -184 4 0 8 24 8 54 0 186 108 485 257 711 80 121 254 299 363
372 361 241 817 308 1275 188 207 -54 394 -161 540 -309 142 -143 241 -309
309 -518 68 -206 103 -474 93 -700 l-6 -128 3210 0 c2800 0 3210 2 3206 14
-35 90 -52 320 -37 486 40 448 216 800 509 1021 284 214 741 311 1103 236 292
-61 516 -182 703 -378 276 -289 435 -750 435 -1261 l0 -119 73 6 c472 41 824
266 942 602 56 163 71 411 31 524 -36 100 -114 158 -223 167 -35 2 -63 5 -63
6 0 1 13 40 29 88 96 280 78 512 -54 718 -23 36 -61 86 -84 112 -54 61 -178
154 -263 198 -49 25 -68 41 -68 55 -1 70 -82 159 -189 207 -36 16 -72 33 -79
36 -8 4 -31 75 -52 157 -118 463 -308 817 -605 1124 -189 195 -376 331 -626
455 -222 111 -451 186 -719 238 l-115 22 -1785 4 c-1229 2 -1835 0 -1945 -8
-236 -16 -528 -63 -777 -126 -53 -13 -101 -24 -106 -24 -6 0 -14 12 -20 28
-31 86 -140 173 -269 215 -110 36 -172 47 -300 54 l-113 6 0 -306z m3215 -167
c275 -12 908 -49 965 -56 93 -12 151 -122 175 -332 24 -210 75 -1044 75 -1222
l0 -60 -1280 0 -1280 0 5 183 c27 922 66 1297 148 1418 20 30 31 35 90 46 171
31 687 42 1102 23z m-1759 -59 c22 -10 50 -31 62 -46 48 -61 49 -48 -63 -810
-58 -390 -108 -720 -110 -732 l-5 -23 -1050 0 -1050 0 0 26 c0 14 9 71 20 126
77 376 273 712 552 944 212 176 483 320 725 385 43 11 121 33 173 49 117 35
223 57 400 80 184 25 293 25 346 1z m3619 -21 c401 -29 713 -96 848 -182 181
-116 411 -430 622 -848 l85 -169 0 -195 0 -196 -828 0 -828 0 -21 108 c-119
588 -230 1122 -259 1233 -37 148 -37 165 9 207 54 51 129 59 372 42z"/>
<path d="M5932 10479 c-326 -38 -632 -221 -824 -493 -276 -392 -288 -912 -29
-1313 359 -555 1095 -710 1644 -346 93 62 225 188 296 283 224 301 288 698
172 1061 -171 532 -702 873 -1259 808z m273 -681 c238 -60 405 -318 367 -565
-55 -350 -440 -540 -748 -368 -74 42 -172 144 -208 217 -191 391 165 824 589
716z"/>
<path d="M15120 10484 c-236 -30 -425 -102 -592 -226 -250 -185 -410 -445
-469 -759 -6 -35 -12 -120 -12 -189 -2 -865 902 -1438 1680 -1065 250 119 432
299 554 545 135 274 156 601 58 894 -134 400 -480 702 -896 782 -78 15 -265
25 -323 18z m235 -686 c117 -30 256 -140 314 -247 156 -294 -1 -652 -324 -736
-254 -66 -527 89 -605 343 -39 126 -21 295 43 402 121 202 346 296 572 238z"/>
</g>
</svg>
